<svg xmlns="http://www.w3.org/2000/svg" viewBox="0 0 285.85 168.3"><defs><style>.cls-1{fill:none;stroke:#fff;stroke-miterlimit:10;stroke-width:6px;}</style></defs><title>Asset 1</title><g id="Layer_2" data-name="Layer 2"><g id="Layer_1-2" data-name="Layer 1"><path d="M4.6,69.3l-.4-2.6,3-1.2,1.6.4,4.4.2,3.6-2,1.6.2,3-2.2,4.8-.4,2.2-1,4.2-1.2,2.2-2,3.6-1.8,1.8-3,2.4-.8,3.6-2,1.8-2,2.4-1.8h3l2.8-.6,2.6,1.2,3.4,1.6,4.4-.4,3.2,2.8,4.4,6.2-.4,4.8-1.8,6-1.2,6.6.6,4L71,84.7l-1.4,3.2-1,5.6-.8,4.6-2,3.4-.8,5.6-3.6,2.6-4,3-4-2-2.8-4.4-1.2-4.6.6-3-.6-5.6,1.4-2.8.4-1.8.2-5,1-2.2,1-4,2-4.6-1.2-4.2-4.8-1.6L47,69.1l-4,1.6-4.8,1.6-4.4.6-3.2,2.4-4.2,2.2-6,.4-3.2-2H10l-1.4-3L4,70.5ZM89.8,4.7l1.8.8,2.8-.4,3-1.6h3.2l4.4,1,3,.4,1.6-1.4,4.2,1.8,2.4,1.6c.6.6.6,1.8,1.4,2.2.6.4,1.8.2,2.6.6a19.47,19.47,0,0,0,3,2.2,4.27,4.27,0,0,1,1.6,3.4,20.8,20.8,0,0,1-.4,3,101.35,101.35,0,0,0-1.8,10.8c-.4,3.6-.8,7.4-1.2,11-.4,2.2-1.2,4.2-1.2,6-.2,2,.6,4.2.6,6.2v4.4l-1.4,4.8,1.4,3.2-.2,6.2,3.8-1.4,6.2-1.2h3.6l3-1.6h10l5.4,1,5.2.6,2.4,2.8,1.6,3,.6,2.6-.6,2.4-1,2.6-1.2,1.6-3,.4-4,1.6-5.2.6-3,1-5.2.4-3-2-4.8-.8-5.6-2.6-3-2.2-2.4-.4-.2,19-.4,5.6-1.2,3.8,1.2,5.2,2,11.6-2.2,3.8,1.2,5.2-2.2,5.6-.8,4.4-1.8,1.4v5.2l-9.6,11.4-5,3.8H99.2l-1.8-3.2,3-7,.4-6,1.4-2-.4-9.2-1-11.4,1.2-7.2.6-5.4-1.2-6,.6-7-.6-4v-6l.8-3.6-1-3.6-.2-6,1-3.8-.8-14.6-.6-7.6,1.6-2-1.6-2.8V41.1L99.4,27.5c-.4-1.4.4-2.4.4-3.8a24,24,0,0,0-2.6-4.2,15.48,15.48,0,0,0-6-5.4,3.16,3.16,0,0,1-1.6-1,1.75,1.75,0,0,1-1.2-1.4,2.44,2.44,0,0,1-.6-1.8A1.23,1.23,0,0,1,88,8.5Z"/><path class="cls-1" d="M4.6,69.3l-.4-2.6,3-1.2,1.6.4,4.4.2,3.6-2,1.6.2,3-2.2,4.8-.4,2.2-1,4.2-1.2,2.2-2,3.6-1.8,1.8-3,2.4-.8,3.6-2,1.8-2,2.4-1.8h3l2.8-.6,2.6,1.2,3.4,1.6,4.4-.4,3.2,2.8,4.4,6.2-.4,4.8-1.8,6-1.2,6.6.6,4L71,84.7l-1.4,3.2-1,5.6-.8,4.6-2,3.4-.8,5.6-3.6,2.6-4,3-4-2-2.8-4.4-1.2-4.6.6-3-.6-5.6,1.4-2.8.4-1.8.2-5,1-2.2,1-4,2-4.6-1.2-4.2-4.8-1.6L47,69.1l-4,1.6-4.8,1.6-4.4.6-3.2,2.4-4.2,2.2-6,.4-3.2-2H10l-1.4-3L4,70.5ZM89.8,4.7l1.8.8,2.8-.4,3-1.6h3.2l4.4,1,3,.4,1.6-1.4,4.2,1.8,2.4,1.6c.6.6.6,1.8,1.4,2.2.6.4,1.8.2,2.6.6a19.47,19.47,0,0,0,3,2.2,4.27,4.27,0,0,1,1.6,3.4,20.8,20.8,0,0,1-.4,3,101.35,101.35,0,0,0-1.8,10.8c-.4,3.6-.8,7.4-1.2,11-.4,2.2-1.2,4.2-1.2,6-.2,2,.6,4.2.6,6.2v4.4l-1.4,4.8,1.4,3.2-.2,6.2,3.8-1.4,6.2-1.2h3.6l3-1.6h10l5.4,1,5.2.6,2.4,2.8,1.6,3,.6,2.6-.6,2.4-1,2.6-1.2,1.6-3,.4-4,1.6-5.2.6-3,1-5.2.4-3-2-4.8-.8-5.6-2.6-3-2.2-2.4-.4-.2,19-.4,5.6-1.2,3.8,1.2,5.2,2,11.6-2.2,3.8,1.2,5.2-2.2,5.6-.8,4.4-1.8,1.4v5.2l-9.6,11.4-5,3.8H99.2l-1.8-3.2,3-7,.4-6,1.4-2-.4-9.2-1-11.4,1.2-7.2.6-5.4-1.2-6,.6-7-.6-4v-6l.8-3.6-1-3.6-.2-6,1-3.8-.8-14.6-.6-7.6,1.6-2-1.6-2.8V41.1L99.4,27.5c-.4-1.4.4-2.4.4-3.8a24,24,0,0,0-2.6-4.2,15.48,15.48,0,0,0-6-5.4,3.16,3.16,0,0,1-1.6-1,1.75,1.75,0,0,1-1.2-1.4,2.44,2.44,0,0,1-.6-1.8A1.23,1.23,0,0,1,88,8.5Z"/><path d="M173.6,33.7l7.2-2h3.8l3.6-1.8,3.8-2.6,8.6-1.6,4.4-3.2,3.2,1.4,5.2,1.6,1.6,3,2,2.4,2.2,6.8-.6,4.2-.2,3.4,1,4,.6,2-1.4,3.4-1.8,2.2L215,60.3l-9.2,3.2-3.4,2.4-3.2,1.4H195l-2,2.6-4.6,2-2.6,1.4h-2.2l.8,3.8-.6,3.8-.4,3.2,1,1.8-.8,2.8,3-.4,4-.6,3.8-2.2,8-3.4,3.8-.6,4-3.6,7.2-2.6,4.6-.2,5.2-2h4.4l3,1.4,4.6,4-.2,4.6-3.4,2.8-2,3-5,3-2.8-.2-5.2,1.2-3.8-.8-6,1.2-7.2,3.2h-2.8l-8.6,3.6-6.8,3.2-2.6,2.4-6.2,1.8-5.4,1.2-4.4-4.4v-2.2l-2.4-4.8V93.5l2.8-4.6.2-3.8.4-5.4.8-3.4,1.4-2.8-.4-2.8c-.6-2.6-1-5.2-3-6.8l-1.4-1.2.8-2.8,2.8-1,2.8,1,3,.8,3.2.2h2l2.4-1.6,4-2.2,5-2.2,8-2.4c.8-2.2,3.6-3,2.6-6.8l.2-4.6-1,.2-1.4-.2-4.2,2h-5.2l-3.6-.4-5.6-.6-3.2-1.8L174,39.1l-1.2-2Zm83.6,72.6c1.8,1,3.6,3.4,5.2,4.2a9.43,9.43,0,0,0,5.2,1.6c3.2.4,14.8,9,15,13.4.8,4.6-.4,9.4-1.8,10.6l-4,3.4c-2.2,2.2-4.6,4.2-6.2,6.2a49.57,49.57,0,0,1-7.4,5.8c-2.4,1-4.8,1.8-7.8,3.2-3.4.8-2.4,1.6-4.4,1.6-3.6,0-13.4,0-16.6.2a56.63,56.63,0,0,0-6,.4,57.6,57.6,0,0,0-6.6,1,15.44,15.44,0,0,1-5.8-1.4,22.69,22.69,0,0,1-3.8-3.8,34.7,34.7,0,0,1-3-4.4,9.73,9.73,0,0,0-3.8-3.4V134.3a28,28,0,0,1,5.2-4.2c1.8-1.2,3.8-2.4,6-3.8,3-1.6,5-5.8,6.8-8,1.8-2.4,3.6-1.8,6-3.6,1.8-1.6,3.6-2.4,4.6-4.4,1-1.8,2.6-2.6,4.6-4.8l9-3,4.6,1Zm-33.6-67v-.6l.8-.8.8-1.2h3.6l.4-1.4,1.4-1,2.4-.6,1.8-.8,2.4-.4,1-1.4h2.2l2.4-.8,4.2-2.2,2.8.2,4-.8,1.8-1,2.2,1.2,2.6,2.8.6,4-4,3.2-4,3-3.2.8-2.4.4L246,43.3l-1.2,1-2.6.2-1.4.6-1.6.4-2.2.4-5.4-.6-.4-1L227,42.5l-2.6-1.6ZM252.8,4.9l4.6-.8,3.4,1.8h6.8l2.2,2.6,4.2,2,5.6,6.2,2.2,9,.8,5.2v5.2l-1.6,3c1.6,7.4.4,6.2.6,7.4a13.24,13.24,0,0,0,.2,3v3a10,10,0,0,0-.4,2.4l-.4,3.2-.8,3.8v2.6a4.44,4.44,0,0,0,.2,1.8v1.2a5.63,5.63,0,0,0,.2,1.6,7.29,7.29,0,0,0,.4,2.8l-2,5c0,1,.2,1.8.2,2.6v1.8c0,.8,0,1.2.2,1.2a7.07,7.07,0,0,1,.2,1.2c-.2.8-.4,1.8-.6,2.6a20.92,20.92,0,0,0-.8,3.4v7l-3.8,3.4a10.61,10.61,0,0,0-2.2.6,2.66,2.66,0,0,1-1.4.6c-.6.2-.8.4-.6.4,0,.2-.4,0-.8-.4a7.18,7.18,0,0,1-2-1.4,11.34,11.34,0,0,1-2.6-2l-2.4-5.6-.4-5.6.6-5-.6-5.2,2.2-9-1-5.8a13.89,13.89,0,0,0-2.6,1l-.8.6-3.2.8a7.18,7.18,0,0,1-2,1.4,22.14,22.14,0,0,0-3.4,2.2c-.8-.2-2.4,1.2-3.2,1-1,.2-1.8.6-2.8.2l-3.8.2s-2.8-.4-3.2-.4l-4.4-1.2-.6,1.2-6.4-1.8-1-2.6,1-2.4,1.2-2,2.6-.8,4-.8,2.4-1.6,2.2.6,3.4-2.8a9.88,9.88,0,0,1,3.2-1c.6,0,1.4.2,2.2.2.6,0,1.2-.6,1.6-1h3a7,7,0,0,1,2.2-2.6c1.4-1.2,4.4-1.2,5.2-3l1.4-.8,1.8-.4-.2-1.4a2.89,2.89,0,0,1-.4-1.4,4.44,4.44,0,0,1-.2-1.8c0-.2.2-1,.4-2.2,0-1,.2-1.6.2-2a4.88,4.88,0,0,1-.2-1.4l-1-5.8-2-4.2-2.4-6.2L255,16.7l-1.4-3c-.2-.4-.4-.6-.6-1a7.61,7.61,0,0,1-1.2-1c-.2,0-.2-.4-.2-1.6a5,5,0,0,1,.2-1.6Zm1.8,135c3.8-1.4,6.8-3.8,9.8-7.4l-2.8-8.6a9.27,9.27,0,0,1-2-2c-.4-.4-.8-.8-.8-1a9.24,9.24,0,0,0-2.6-3.6,4.65,4.65,0,0,1-1.6-2.4c-3,0-3-1.6-4.6-1-1.8.4-6.2,6.2-7,7a36.54,36.54,0,0,1-3.4,3c-1.4.8-2,5.4-3.2,5.6-.6,1-1.2,2.2-1.6,2.8-.8,1-1.6,1.6-1.8,2l-2.2,2.4a4.86,4.86,0,0,0-2,2.6,5.21,5.21,0,0,0,2.8,2.4c1,.4,2.2,1,4.6,1.8a10.77,10.77,0,0,1,6.4-1.8C244.6,142.1,251,141.5,254.6,139.9Z"/><path class="cls-1" d="M173.6,33.7l7.2-2h3.8l3.6-1.8,3.8-2.6,8.6-1.6,4.4-3.2,3.2,1.4,5.2,1.6,1.6,3,2,2.4,2.2,6.8-.6,4.2-.2,3.4,1,4,.6,2-1.4,3.4-1.8,2.2L215,60.3l-9.2,3.2-3.4,2.4-3.2,1.4H195l-2,2.6-4.6,2-2.6,1.4h-2.2l.8,3.8-.6,3.8-.4,3.2,1,1.8-.8,2.8,3-.4,4-.6,3.8-2.2,8-3.4,3.8-.6,4-3.6,7.2-2.6,4.6-.2,5.2-2h4.4l3,1.4,4.6,4-.2,4.6-3.4,2.8-2,3-5,3-2.8-.2-5.2,1.2-3.8-.8-6,1.2-7.2,3.2h-2.8l-8.6,3.6-6.8,3.2-2.6,2.4-6.2,1.8-5.4,1.2-4.4-4.4v-2.2l-2.4-4.8V93.5l2.8-4.6.2-3.8.4-5.4.8-3.4,1.4-2.8-.4-2.8c-.6-2.6-1-5.2-3-6.8l-1.4-1.2.8-2.8,2.8-1,2.8,1,3,.8,3.2.2h2l2.4-1.6,4-2.2,5-2.2,8-2.4c.8-2.2,3.6-3,2.6-6.8l.2-4.6-1,.2-1.4-.2-4.2,2h-5.2l-3.6-.4-5.6-.6-3.2-1.8L174,39.1l-1.2-2Zm83.6,72.6c1.8,1,3.6,3.4,5.2,4.2a9.43,9.43,0,0,0,5.2,1.6c3.2.4,14.8,9,15,13.4.8,4.6-.4,9.4-1.8,10.6l-4,3.4c-2.2,2.2-4.6,4.2-6.2,6.2a49.57,49.57,0,0,1-7.4,5.8c-2.4,1-4.8,1.8-7.8,3.2-3.4.8-2.4,1.6-4.4,1.6-3.6,0-13.4,0-16.6.2a56.63,56.63,0,0,0-6,.4,57.6,57.6,0,0,0-6.6,1,15.44,15.44,0,0,1-5.8-1.4,22.69,22.69,0,0,1-3.8-3.8,34.7,34.7,0,0,1-3-4.4,9.73,9.73,0,0,0-3.8-3.4V134.3a28,28,0,0,1,5.2-4.2c1.8-1.2,3.8-2.4,6-3.8,3-1.6,5-5.8,6.8-8,1.8-2.4,3.6-1.8,6-3.6,1.8-1.6,3.6-2.4,4.6-4.4,1-1.8,2.6-2.6,4.6-4.8l9-3,4.6,1Zm-33.6-67v-.6l.8-.8.8-1.2h3.6l.4-1.4,1.4-1,2.4-.6,1.8-.8,2.4-.4,1-1.4h2.2l2.4-.8,4.2-2.2,2.8.2,4-.8,1.8-1,2.2,1.2,2.6,2.8.6,4-4,3.2-4,3-3.2.8-2.4.4L246,43.3l-1.2,1-2.6.2-1.4.6-1.6.4-2.2.4-5.4-.6-.4-1L227,42.5l-2.6-1.6ZM252.8,4.9l4.6-.8,3.4,1.8h6.8l2.2,2.6,4.2,2,5.6,6.2,2.2,9,.8,5.2v5.2l-1.6,3c1.6,7.4.4,6.2.6,7.4a13.24,13.24,0,0,0,.2,3v3a10,10,0,0,0-.4,2.4l-.4,3.2-.8,3.8v2.6a4.44,4.44,0,0,0,.2,1.8v1.2a5.63,5.63,0,0,0,.2,1.6,7.29,7.29,0,0,0,.4,2.8l-2,5c0,1,.2,1.8.2,2.6v1.8c0,.8,0,1.2.2,1.2a7.07,7.07,0,0,1,.2,1.2c-.2.8-.4,1.8-.6,2.6a20.92,20.92,0,0,0-.8,3.4v7l-3.8,3.4a10.61,10.61,0,0,0-2.2.6,2.66,2.66,0,0,1-1.4.6c-.6.2-.8.4-.6.4,0,.2-.4,0-.8-.4a7.18,7.18,0,0,1-2-1.4,11.34,11.34,0,0,1-2.6-2l-2.4-5.6-.4-5.6.6-5-.6-5.2,2.2-9-1-5.8a13.89,13.89,0,0,0-2.6,1l-.8.6-3.2.8a7.18,7.18,0,0,1-2,1.4,22.14,22.14,0,0,0-3.4,2.2c-.8-.2-2.4,1.2-3.2,1-1,.2-1.8.6-2.8.2l-3.8.2s-2.8-.4-3.2-.4l-4.4-1.2-.6,1.2-6.4-1.8-1-2.6,1-2.4,1.2-2,2.6-.8,4-.8,2.4-1.6,2.2.6,3.4-2.8a9.88,9.88,0,0,1,3.2-1c.6,0,1.4.2,2.2.2.6,0,1.2-.6,1.6-1h3a7,7,0,0,1,2.2-2.6c1.4-1.2,4.4-1.2,5.2-3l1.4-.8,1.8-.4-.2-1.4a2.89,2.89,0,0,1-.4-1.4,4.44,4.44,0,0,1-.2-1.8c0-.2.2-1,.4-2.2,0-1,.2-1.6.2-2a4.88,4.88,0,0,1-.2-1.4l-1-5.8-2-4.2-2.4-6.2L255,16.7l-1.4-3c-.2-.4-.4-.6-.6-1a7.61,7.61,0,0,1-1.2-1c-.2,0-.2-.4-.2-1.6a5,5,0,0,1,.2-1.6Zm1.8,135c3.8-1.4,6.8-3.8,9.8-7.4l-2.8-8.6a9.27,9.27,0,0,1-2-2c-.4-.4-.8-.8-.8-1a9.24,9.24,0,0,0-2.6-3.6,4.65,4.65,0,0,1-1.6-2.4c-3,0-3-1.6-4.6-1-1.8.4-6.2,6.2-7,7a36.54,36.54,0,0,1-3.4,3c-1.4.8-2,5.4-3.2,5.6-.6,1-1.2,2.2-1.6,2.8-.8,1-1.6,1.6-1.8,2l-2.2,2.4a4.86,4.86,0,0,0-2,2.6,5.21,5.21,0,0,0,2.8,2.4c1,.4,2.2,1,4.6,1.8a10.77,10.77,0,0,1,6.4-1.8C244.6,142.1,251,141.5,254.6,139.9Z"/></g></g></svg>